<?xml version="1.0" encoding="UTF-8" standalone="no"?>
<!DOCTYPE svg PUBLIC "-//W3C//DTD SVG 1.1//EN" "http://www.w3.org/Graphics/SVG/1.1/DTD/svg11.dtd">
<svg width="100%" height="100%" viewBox="0 0 1117 892" version="1.1" xmlns="http://www.w3.org/2000/svg" xmlns:xlink="http://www.w3.org/1999/xlink" xml:space="preserve" xmlns:serif="http://www.serif.com/" style="fill-rule:evenodd;clip-rule:evenodd;stroke-linecap:round;stroke-linejoin:round;stroke-miterlimit:1.5;">
    <g id="画板1" transform="matrix(0.954207,0,0,0.976787,-664.382,-247.343)">
        <rect x="696.266" y="253.221" width="1170.03" height="912.552" style="fill:none;"/>
        <g transform="matrix(1.04799,0,0,1.02376,-60.1837,-20.9858)">
            <path d="M1639.49,679.525L1672.29,712.319M1672.29,679.525L1639.49,712.319" style="fill:none;stroke:black;stroke-width:4px;"/>
        </g>
        <g transform="matrix(0.923202,0,0,0.90186,75.2895,121.747)">
            <rect x="1634.48" y="533.609" width="37.307" height="37.307" style="fill:none;stroke:black;stroke-width:4.54px;"/>
        </g>
        <g transform="matrix(1.00662,0,0,0.997527,-3.92375,-7.67218)">
            <path d="M1668.06,540.081L1689.09,574.313L1647.02,574.313L1668.06,540.081Z" style="fill:none;stroke:black;stroke-width:4.13px;"/>
        </g>
        <g transform="matrix(1.04799,0,0,1.02376,-63.5968,-18.369)">
            <circle cx="1729.14" cy="623.366" r="19.1" style="fill:none;stroke:black;stroke-width:4px;"/>
        </g>
        <g id="r2" transform="matrix(1.19695,0,0,1.20074,-286.588,-56.1541)">
            <path d="M1579.77,357.225L1679.77,357.225C1690.55,357.225 1678.68,262.657 1610.67,262.657C1578,262.657 1565.31,357.225 1579.77,357.225Z" style="fill:none;stroke:black;stroke-width:3.46px;"/>
        </g>
        <g id="l2" transform="matrix(-1.19695,0,0,1.20074,2851.49,-56.1541)">
            <path d="M1579.77,357.225L1679.77,357.225C1690.55,357.225 1678.68,262.657 1610.67,262.657C1578,262.657 1565.31,357.225 1579.77,357.225Z" style="fill:none;stroke:black;stroke-width:3.46px;"/>
        </g>
        <g id="dpad-up" transform="matrix(1.04799,0,0,1.02376,-59.2527,-26.3824)">
            <g transform="matrix(1,0,0,1,0,3)">
                <path d="M934.408,542.109C934.408,530.894 925.317,521.803 914.103,521.803L885.214,521.803C874,521.803 864.909,530.894 864.909,542.109L864.909,566.444C864.909,572.731 867.306,578.78 871.612,583.36C878.468,590.653 888.943,601.795 894.962,608.198C896.181,609.494 897.88,610.229 899.658,610.229C901.437,610.229 903.136,609.494 904.355,608.198C910.374,601.795 920.849,590.653 927.705,583.36C932.011,578.78 934.408,572.731 934.408,566.444C934.408,559.679 934.408,550.432 934.408,542.109Z" style="fill:none;stroke:black;stroke-width:4px;"/>
            </g>
            <path d="M889.258,543.129L907.916,543.129L898.835,534.049L889.258,543.129Z" style="stroke:black;stroke-width:4px;"/>
        </g>
        <g id="dpad-down" transform="matrix(1.04799,0,0,-1.02376,-59.2527,1264.91)">
            <g transform="matrix(1,0,0,1,0,3)">
                <path d="M934.408,542.109C934.408,530.894 925.317,521.803 914.103,521.803L885.214,521.803C874,521.803 864.909,530.894 864.909,542.109L864.909,566.234C864.909,572.646 867.402,578.806 871.862,583.412C878.746,590.522 889.092,601.208 895.028,607.339C896.242,608.593 897.913,609.301 899.658,609.301C901.404,609.301 903.075,608.593 904.289,607.339C910.225,601.208 920.571,590.522 927.455,583.412C931.914,578.806 934.408,572.646 934.408,566.234C934.408,559.488 934.408,550.346 934.408,542.109Z" style="fill:none;stroke:black;stroke-width:4px;"/>
            </g>
            <path d="M889.258,543.129L907.916,543.129L898.835,534.049L889.258,543.129Z" style="stroke:black;stroke-width:4px;"/>
        </g>
        <g id="dpad-right" transform="matrix(6.41709e-17,-1.02376,-1.04799,-6.26875e-17,1543.94,1539.75)">
            <g transform="matrix(1,0,0,1,0,3)">
                <path d="M934.408,542.109C934.408,530.894 925.317,521.803 914.103,521.803L885.214,521.803C874,521.803 864.909,530.894 864.909,542.109L864.909,566.458C864.909,572.736 867.3,578.778 871.596,583.357C878.24,590.438 888.25,601.106 894.029,607.265C895.224,608.538 896.884,609.272 898.63,609.299C900.376,609.326 902.058,608.643 903.292,607.407C909.386,601.302 920.069,590.597 927.192,583.461C931.813,578.831 934.408,572.556 934.408,566.015C934.408,559.291 934.408,550.257 934.408,542.109Z" style="fill:none;stroke:black;stroke-width:4px;"/>
            </g>
            <path d="M889.258,543.129L907.916,543.129L898.835,534.049L889.258,543.129Z" style="stroke:black;stroke-width:4px;"/>
        </g>
        <g id="dpad-left" transform="matrix(-6.41709e-17,-1.02376,1.04799,-6.26875e-17,223.22,1539.75)">
            <g transform="matrix(1,0,0,1,0,3)">
                <path d="M934.408,542.109C934.408,530.894 925.317,521.803 914.103,521.803L885.214,521.803C874,521.803 864.909,530.894 864.909,542.109L864.909,566.458C864.909,572.736 867.3,578.778 871.596,583.357C878.24,590.438 888.25,601.106 894.029,607.265C895.224,608.538 896.884,609.272 898.63,609.299C900.376,609.326 902.058,608.643 903.292,607.407C909.386,601.302 920.069,590.597 927.192,583.461C931.813,578.831 934.408,572.556 934.408,566.015C934.408,559.291 934.408,550.257 934.408,542.109Z" style="fill:none;stroke:black;stroke-width:4px;"/>
            </g>
            <path d="M889.258,543.129L907.916,543.129L898.835,534.049L889.258,543.129Z" style="stroke:black;stroke-width:4px;"/>
        </g>
        <g id="cross" transform="matrix(1.04799,0,0,1.02376,-69.8487,153.587)">
            <circle cx="1665.11" cy="525.401" r="34.957" style="fill:none;stroke:black;stroke-width:4px;"/>
        </g>
        <g id="rect" transform="matrix(1.04799,0,0,1.02376,-143.208,81.9239)">
            <circle cx="1665.11" cy="525.401" r="34.957" style="fill:none;stroke:black;stroke-width:4px;"/>
        </g>
        <g id="circle" transform="matrix(1.04799,0,0,1.02376,3.51071,81.9239)">
            <circle cx="1665.11" cy="525.401" r="34.957" style="fill:none;stroke:black;stroke-width:4px;"/>
        </g>
        <g id="triangle" transform="matrix(1.04799,0,0,1.02376,-69.8487,10.2604)">
            <circle cx="1665.11" cy="525.401" r="34.957" style="fill:none;stroke:black;stroke-width:4px;"/>
        </g>
        <g id="border1" transform="matrix(1.04799,0,0,1.02376,-59.2527,-21.0995)">
            <path d="M821.891,1149.7C830.442,1151.31 884.247,1153.8 890.27,1146.55C924.201,1105.72 959.792,992.312 975.686,950.409C985.478,924.595 1011.09,912.527 1043.18,909.722C1073.78,923.291 1088.33,923.703 1139.89,913.315L1420.11,913.315C1471.67,923.703 1486.23,923.291 1516.82,909.722C1548.91,912.527 1574.52,924.595 1584.31,950.409C1600.21,992.312 1635.8,1105.72 1669.73,1146.55C1675.75,1153.8 1729.56,1151.31 1738.11,1149.7" style="fill:none;stroke:black;stroke-width:4px;"/>
        </g>
        <g id="border2" transform="matrix(1.04799,0,0,1.02376,-59.2527,-21.0995)">
            <path d="M1003.45,436.511C1017.29,438.306 1031.13,435.352 1044.97,430" style="fill:none;stroke:black;stroke-width:4px;"/>
        </g>
        <g id="mute" transform="matrix(1.04799,0,0,1.02376,-61.8321,-20.6709)">
            <path d="M1313.44,858.8C1313.44,855.101 1310.44,852.102 1306.75,852.102C1294.83,852.102 1270.09,852.102 1258.18,852.102C1254.48,852.102 1251.48,855.101 1251.48,858.8C1251.48,858.801 1251.48,858.801 1251.48,858.802C1251.48,862.501 1254.48,865.5 1258.18,865.5C1270.09,865.5 1294.83,865.5 1306.75,865.5C1310.44,865.5 1313.44,862.501 1313.44,858.802C1313.44,858.801 1313.44,858.801 1313.44,858.8Z" style="fill:none;stroke:black;stroke-width:4px;"/>
        </g>
        <g id="border3" transform="matrix(-1.04799,0,0,1.02376,2623.29,-21.0995)">
            <path d="M1003.45,436.511C1017.29,438.306 1031.13,435.352 1044.97,430" style="fill:none;stroke:black;stroke-width:4px;"/>
        </g>
        <g id="right-hat" transform="matrix(1.04799,0,0,1.02376,-54.0127,-21.0995)">
            <path d="M1536.64,461.082C1538.1,454.139 1540.62,448.211 1544.23,443.324C1554.11,429.923 1572.15,424.356 1598.92,427.18C1639.66,431.477 1678.74,439.099 1714.35,449.489C1726.25,452.963 1737.83,457.763 1742.74,468.16C1833.75,661.122 1849.58,876.955 1798.65,1111.24C1795.7,1124.8 1789.6,1135.46 1777.6,1143.35C1771.76,1147.18 1765.01,1150.41 1755.71,1152.79C1734.15,1158.32 1724.67,1142.93 1722.08,1129.04C1688.66,950.214 1633.4,786.687 1530.41,678.802C1521.1,669.041 1512.23,647.121 1509.78,627.068C1508.81,619.143 1509.33,611.735 1510.24,605.032C1515.61,565.609 1524.43,519.826 1533.28,477.13C1534.4,471.724 1535.52,466.369 1536.64,461.082Z" style="fill:none;stroke:black;stroke-width:4px;"/>
        </g>
        <g id="left-hat" transform="matrix(-1.04799,0,0,1.02376,2617.56,-21.0995)">
            <path d="M1536.64,461.082C1542.12,435.098 1562.38,423.326 1598.92,427.18C1639.66,431.477 1678.74,439.099 1714.35,449.489C1726.25,452.963 1737.83,457.763 1742.74,468.16C1833.75,661.122 1849.58,876.955 1798.65,1111.24C1795.7,1124.8 1789.6,1135.46 1777.6,1143.35C1771.76,1147.18 1765.01,1150.41 1755.71,1152.79C1734.15,1158.32 1724.67,1142.93 1722.08,1129.04C1688.66,950.214 1633.4,786.687 1530.41,678.802C1521.1,669.041 1512.23,647.121 1509.78,627.068C1508.81,619.143 1509.33,611.735 1510.24,605.032C1516.29,560.618 1526.72,508.131 1536.64,461.082Z" style="fill:none;stroke:black;stroke-width:4px;"/>
        </g>
        <g id="touchpad" transform="matrix(1.03398,0,0,1.03077,-37.8634,-25.7549)">
            <path d="M1280,410.968C1280,410.968 1295.92,410.887 1319.85,411.295C1371.4,412.176 1460.09,415.33 1506.56,426.465C1512.6,427.914 1517.79,431.384 1521.32,435.732C1525.05,440.326 1526.93,445.901 1526.02,451.109C1517.08,502.33 1505.67,560.142 1495.49,611.132C1487.46,651.356 1454.6,664.948 1427.06,664.824C1399.52,664.7 1280,664.265 1280,664.265C1280,664.265 1160.48,664.7 1132.94,664.824C1105.4,664.948 1072.54,651.356 1064.51,611.132C1054.33,560.142 1042.92,502.33 1033.98,451.109C1032.21,440.971 1041.01,429.445 1053.44,426.465C1121.47,410.163 1280,410.968 1280,410.968Z" style="fill:none;stroke:black;stroke-width:4.01px;"/>
        </g>
        <g id="r1" transform="matrix(1.04799,0,0,1.02376,-53.1719,-21.1936)">
            <path d="M1710.79,448.465C1710.06,419.222 1559.14,376.876 1562.69,430C1572.21,426.604 1584.26,425.633 1598.92,427.18C1638.31,431.335 1676.14,438.597 1710.79,448.465Z" style="fill:none;stroke:black;stroke-width:4px;"/>
        </g>
        <g id="l1" transform="matrix(-1.04799,0,0,1.02376,2617.56,-21.0995)">
            <path d="M1710.79,448.465C1710.06,419.222 1559.14,376.876 1562.69,430C1572.21,426.604 1584.26,425.633 1598.92,427.18C1638.31,431.335 1676.14,438.597 1710.79,448.465Z" style="fill:none;stroke:black;stroke-width:4px;"/>
        </g>
        <g id="options" transform="matrix(1.00731,0.196365,-0.166064,0.812946,93.6712,-230.389)">
            <path d="M1550.36,480.226L1550.36,520.418C1550.36,520.418 1550.17,535.418 1565.03,535.418C1579.88,535.418 1579.7,520.418 1579.7,520.418L1579.7,480.025C1579.7,480.025 1579.89,465.024 1565.03,465.126C1550.17,465.227 1550.36,480.226 1550.36,480.226Z" style="fill:none;stroke:black;stroke-width:4.45px;"/>
        </g>
        <g id="create" transform="matrix(-1.00731,0.196365,0.166064,0.812946,2489.53,-230.389)">
            <path d="M1566.37,476.359L1566.37,516.552C1566.37,516.552 1566.18,531.552 1581.04,531.552C1595.89,531.552 1595.71,516.552 1595.71,516.552L1595.71,476.158C1595.71,476.158 1595.89,461.157 1581.04,461.259C1566.18,461.36 1566.37,476.359 1566.37,476.359Z" style="fill:none;stroke:black;stroke-width:4.45px;"/>
        </g>
        <g id="create-icon" transform="matrix(1.04799,0,0,1.02376,-60.7353,-17.8077)">
            <path d="M985.029,452.795L980.502,445.716L985.029,452.795Z" style="fill:none;stroke:black;stroke-width:4px;"/>
            <path d="M992.053,450.079L992.053,441.353L992.053,450.079Z" style="fill:none;stroke:black;stroke-width:4px;"/>
            <path d="M997.87,452.795L1003.06,445.716" style="fill:none;stroke:black;stroke-width:4px;"/>
        </g>
        <g id="options-icon" transform="matrix(1.04799,0,0,1.02376,-59.2527,-21.0995)">
            <g transform="matrix(1,0,0,1,-3,-2)">
                <path d="M1580.81,444.569L1566.83,444.569L1580.81,444.569Z" style="fill:none;stroke:black;stroke-width:4px;"/>
            </g>
            <g transform="matrix(1,0,0,1,-3,-2)">
                <path d="M1580.81,450.289L1566.83,450.289L1580.81,450.289Z" style="fill:none;stroke:black;stroke-width:4px;"/>
            </g>
            <g transform="matrix(1,0,0,1,-3,-2)">
                <path d="M1580.81,456.01L1566.83,456.01" style="fill:none;stroke:black;stroke-width:4px;"/>
            </g>
        </g>
        <g id="r3group" transform="matrix(1.04799,0,0,1.02376,-59.2527,-21.0995)">
            <g id="r3-border" transform="matrix(1.11981,0,0,1.11981,-187.697,-89.8877)">
                <circle cx="1493.18" cy="791.553" r="78.002" style="fill:rgb(235,235,235);stroke:black;stroke-width:3.57px;"/>
            </g>
            <g id="r3" transform="matrix(0.733227,0,0,0.733227,389.538,216.112)">
                <circle cx="1493.18" cy="791.553" r="78.002" style="stroke:black;stroke-width:5.46px;"/>
            </g>
        </g>
        <g id="l3group" transform="matrix(1.04799,0,0,1.02376,-59.2527,-21.0995)">
            <g id="l3-border" transform="matrix(1.11981,0,0,1.11981,-599.389,-89.8877)">
                <circle cx="1493.18" cy="791.553" r="78.002" style="fill:none;stroke:black;stroke-width:3.57px;"/>
            </g>
            <g id="l3" transform="matrix(0.733227,0,0,0.733227,-22.1542,216.112)">
                <circle cx="1493.18" cy="791.553" r="78.002" style="stroke:black;stroke-width:5.46px;"/>
            </g>
        </g>
        <g id="ps" transform="matrix(0.111834,0,0,0.109248,1237.45,737.829)">
            <path d="M81.55,606.2C22.2,589.175 12.375,554.1 39.3,533.725C58.7,520.975 81,509.875 104.6,501.525L106.775,500.85L282.2,437.95L282.2,510.2L156.45,556.175C134.425,564.65 130.675,575.925 148.975,581.975C158.1,584.3 168.55,585.65 179.325,585.65C194.7,585.65 209.425,582.925 223.05,577.95L222.175,578.225L282.725,556.175L282.725,620.975C278.975,621.9 274.725,622.35 270.55,623.25C251.175,626.65 228.875,628.6 206.125,628.6C161.675,628.6 118.975,621.15 79.175,607.45L81.925,608.275L81.55,606.2ZM451.225,613.6L647.925,542.525C670.25,534.475 673.725,523 655.6,516.975C646.525,514.75 636.125,513.475 625.4,513.475C609.85,513.475 594.9,516.175 581.05,521.1L581.975,520.825L450.6,567.675L450.6,493.1L458.1,490.45C484.35,481.725 515.2,474.95 547.025,471.425L549.1,471.225C560.8,469.975 574.35,469.275 588.075,469.275C635,469.275 680,477.55 721.65,492.75L718.95,491.875C776.675,510.65 782.675,537.85 768.175,556.6C754.2,570.525 737.3,581.55 718.475,588.65L717.5,588.975L450.575,686.05L450.575,614.325L451.225,613.6ZM305.775,106.2L305.775,654.375L428.075,693.775L428.075,234.025C428.075,212.475 437.575,198.075 452.875,203.075C472.75,208.7 476.625,228.5 476.625,250.1L476.625,433.65C552.875,470.925 612.9,433.575 612.9,335.175C612.9,234.05 577.725,189.125 474.25,153.125C429.625,136.925 373.25,120.775 315.575,108L305.85,106.2L305.775,106.2Z" style="fill-rule:nonzero;"/>
        </g>
    </g>
</svg>
